<?xml version="1.0" encoding="iso-8859-1"?>
<!-- Generator: Adobe Illustrator 19.0.0, SVG Export Plug-In . SVG Version: 6.00 Build 0)  -->
<svg version="1.1" id="Layer_1" xmlns="http://www.w3.org/2000/svg" xmlns:xlink="http://www.w3.org/1999/xlink" x="0px" y="0px"
	 viewBox="0 0 283.334 283.334" style="fill:#41bdb2" xml:space="preserve">
<g>
	<g>
		<g>
			<path d="M42.116,121.63l132.848-21.192c1.144-0.188,1.924-1.26,1.74-2.404c-0.184-1.144-1.264-1.916-2.4-1.74l-134.92,21.52
				c-0.552,0.088-1.04,0.392-1.368,0.844c-0.328,0.452-0.46,1.008-0.372,1.56l11.172,70.04c0.164,1.032,1.052,1.768,2.068,1.768
				c0.108,0,0.22-0.008,0.332-0.028c1.144-0.184,1.924-1.256,1.74-2.4L42.116,121.63z"/>
			<path d="M269.304,155.294c-1.76-11.032-11.52-18.748-22.4-18.412l-7.808-48.94c-1.14-7.152-6.148-12.74-12.704-15.336
				c-2.82-2.768-3.72-6.572-3.796-10.592c-0.064-3.348-0.256-8.872,2.304-11.576l5.052-0.804c1.632-0.264,2.748-1.8,2.488-3.432
				c-0.26-1.636-1.784-2.736-3.432-2.488l-25.16,4.016l1.648-42.14c0.048-1.156-0.856-2.132-2.012-2.18l-87.016-3.408
				c-1.156-0.056-2.132,0.852-2.176,2.016l-0.276,7l-42.352-1.66c-1.192-0.032-2.132,0.86-2.176,2.016l-2.376,60.66
				c-0.496-0.204-1.028-0.328-1.596-0.232l-22.448,3.652c-0.664,0.052-16.38,1.376-24.56,12.032
				c-4.268,5.56-5.672,12.528-4.176,20.712c0.004,0.028-0.008,0.052-0.004,0.076l27.84,174.532c0.124,0.784,0.556,1.492,1.2,1.96
				c0.516,0.372,1.132,0.568,1.76,0.568c0.156,0,0.316-0.012,0.472-0.036l197.836-31.564c5.62-0.896,10.6-3.808,14.012-8.204
				c3.468-4.448,4.9-9.864,4.04-15.236l-7.744-48.528c4.644-1.356,8.728-4.116,11.632-8.12
				C268.832,166.878,270.228,161.07,269.304,155.294z M203.612,53.838l15.908-2.54c-1.192,3.304-1.192,7.256-1.144,10.716
				c0.04,3.344,0.656,6.44,1.984,9.176c-1.864-0.18-3.764-0.216-5.712,0.088l-11.792,1.88L203.612,53.838z M118.4,4.274
				l82.824,3.252l-2.596,66.308l-6.264,1l1.704-43.476c0.04-0.976-0.6-1.848-1.536-2.104c-6.3-1.74-10.836-7.076-11.556-13.596
				c-0.112-1.032-0.964-1.828-2-1.868l-18.292-0.716l0.008-0.128c0.044-1.156-0.86-2.132-2.012-2.18l-40.468-1.584L118.4,4.274z
				 M158.836,60.266l1.684-43l16.564,0.648c1.376,6.864,6.168,12.46,12.728,14.868l-1.676,42.724l-5.064,0.808
				C181.872,67.878,171.848,61.138,158.836,60.266z M178.836,76.994l-20.784,3.316l0.62-15.816
				C169.312,65.262,177.948,70.686,178.836,76.994z M73.592,11.63l42.356,1.66l40.468,1.584l-2.584,66.104l-6.268,1l1.696-43.272
				c0.04-0.972-0.6-1.844-1.54-2.104c-6.3-1.736-10.836-7.072-11.556-13.596c-0.116-1.032-0.964-1.824-2-1.864L96.492,19.67
				c-1.088-0.068-1.952,0.688-2.144,1.704c-1.296,6.812-6.784,11.956-13.652,12.804c-1.02,0.124-1.8,0.972-1.84,2L76.62,93.302
				l-6.268,1L73.592,11.63z M130.852,73.022c-4.764-3.268-11.144-5.212-17.976-5.484C98.168,67.046,86.38,74.114,86,83.802
				c-0.104,2.64,0.784,5.228,2.38,7.62l-7.54,1.204l2.136-54.584c7.256-1.552,13.036-6.964,15.068-14.112l34.228,1.34
				c1.38,6.864,6.168,12.464,12.732,14.872l-1.668,42.516l-5.112,0.816C137.596,79.558,135.064,75.914,130.852,73.022z
				 M134.02,84.142l-41.012,6.54c-1.564-1.692-2.924-3.968-2.82-6.716c0.28-7.1,10.628-12.76,22.524-12.232
				c6.048,0.236,11.644,1.92,15.764,4.748C131.708,78.698,133.568,81.374,134.02,84.142z M23.236,89.158
				c6.532-8.536,20.152-9.72,20.536-9.76l22.696-3.684c0.156-0.024,0.28-0.112,0.424-0.16l-0.76,19.42l-46.296,7.384
				C19.384,97.134,20.524,92.702,23.236,89.158z M255.568,229.234c0.592,3.72-0.42,7.488-2.852,10.62
				c-2.484,3.192-6.112,5.308-10.228,5.96L47.612,276.906l-26.9-168.616l13.916-2.216c0.004,0,0.008-0.004,0.016-0.004
				l180.944-28.868c8.448-1.368,16.348,3.888,17.596,11.684l7.76,48.664l-13.768,2.196l-5.512-34.548
				c-0.26-1.632-1.788-2.744-3.432-2.488c-1.632,0.264-2.748,1.8-2.484,3.432l5.512,34.552l-20.128,3.212
				c-5.78,0.92-10.868,4.056-14.32,8.824c-3.456,4.764-4.848,10.576-3.928,16.356c1.724,10.804,11.092,18.524,21.704,18.524
				c1.144,0,2.308-0.084,3.472-0.272l21.016-3.356l5.448,34.14c1.048,6.564-3.884,12.832-10.992,13.96l-159.728,25.48l-2.272-14.244
				c-0.184-1.144-1.26-1.912-2.4-1.744c-1.144,0.188-1.924,1.26-1.74,2.4l2.604,16.316c0.164,1.032,1.056,1.768,2.068,1.768
				c0.108,0,0.22-0.008,0.332-0.024l161.8-25.812c9.392-1.496,15.884-9.916,14.472-18.768l-5.448-34.14l14.656-2.336
				L255.568,229.234z M260.524,168.13c-2.516,3.472-6.216,5.752-10.412,6.42h-0.004l-42.996,6.86
				c-8.736,1.392-16.928-4.564-18.316-13.272c-0.668-4.204,0.348-8.428,2.864-11.896c2.516-3.468,6.212-5.748,10.412-6.416
				l23.064-3.68c0.008,0,0.012,0,0.02-0.004c0,0,0.004-0.004,0.008-0.004l19.668-3.14c0.004,0,0.008,0,0.008,0
				c0.004,0,0.008-0.004,0.008-0.004l0.22-0.036c0.848-0.136,1.692-0.2,2.528-0.2c7.72,0,14.536,5.62,15.788,13.476
				C264.056,160.434,263.04,164.658,260.524,168.13z"/>
			<path d="M212.108,155.526c-2.248-1.632-4.988-2.28-7.736-1.848c-2.744,0.436-5.152,1.92-6.784,4.168
				c-1.628,2.244-2.284,4.996-1.848,7.736c0.816,5.104,5.244,8.756,10.26,8.756c0.544,0,1.096-0.04,1.648-0.128
				c5.66-0.904,9.532-6.24,8.628-11.904C215.836,159.566,214.36,157.158,212.108,155.526z M206.988,170.066
				c-3.372,0.544-6.56-1.768-7.104-5.144c-0.26-1.636,0.128-3.276,1.1-4.616c0.976-1.34,2.412-2.224,4.044-2.484
				c0.332-0.056,0.664-0.08,0.992-0.08c1.296,0,2.556,0.404,3.628,1.18c1.34,0.972,2.224,2.404,2.484,4.044
				C212.672,166.346,210.36,169.53,206.988,170.066z"/>
			<path d="M58.5,129.102l-7.296,1.164c-1.144,0.188-1.924,1.26-1.74,2.404c0.164,1.032,1.056,1.768,2.068,1.768
				c0.108,0,0.22-0.008,0.332-0.024l7.296-1.164c1.144-0.184,1.924-1.256,1.74-2.4C60.716,129.702,59.652,128.942,58.5,129.102z"/>
			<path d="M86.476,126.77c-0.188-1.148-1.248-1.92-2.404-1.744l-14.12,2.256c-1.144,0.184-1.924,1.256-1.74,2.4
				c0.168,1.032,1.056,1.768,2.072,1.768c0.108,0,0.22-0.008,0.332-0.024l14.12-2.256C85.88,128.986,86.66,127.914,86.476,126.77z"
				/>
			<path d="M137.628,118.61c-0.184-1.144-1.256-1.916-2.404-1.744l-14.12,2.252c-1.144,0.188-1.924,1.26-1.74,2.404
				c0.164,1.032,1.056,1.768,2.072,1.768c0.108,0,0.22-0.008,0.332-0.028l14.12-2.252
				C137.032,120.826,137.812,119.754,137.628,118.61z"/>
			<path d="M163.204,114.53c-0.184-1.144-1.256-1.904-2.404-1.744l-14.12,2.252c-1.144,0.184-1.924,1.26-1.74,2.404
				c0.164,1.032,1.056,1.768,2.072,1.768c0.108,0,0.22-0.008,0.332-0.028l14.12-2.252
				C162.608,116.746,163.388,115.674,163.204,114.53z"/>
			<path d="M170.512,113.362c0.164,1.032,1.056,1.768,2.068,1.768c0.108,0,0.22-0.008,0.332-0.024l14.12-2.256
				c1.144-0.188,1.924-1.26,1.74-2.404c-0.18-1.144-1.252-1.912-2.4-1.74l-14.12,2.252
				C171.108,111.146,170.328,112.218,170.512,113.362z"/>
			<path d="M112.052,122.69c-0.188-1.144-1.252-1.904-2.404-1.744l-14.12,2.256c-1.144,0.184-1.924,1.256-1.74,2.4
				c0.168,1.032,1.056,1.768,2.072,1.768c0.108,0,0.22-0.008,0.332-0.024l14.12-2.256
				C111.456,124.906,112.236,123.834,112.052,122.69z"/>
			<path d="M198.156,111.046c0.108,0,0.22-0.008,0.332-0.024l7.296-1.164c1.144-0.184,1.924-1.256,1.74-2.4
				c-0.18-1.144-1.252-1.904-2.4-1.744l-7.296,1.164c-1.14,0.188-1.924,1.26-1.74,2.404
				C196.252,110.31,197.14,111.046,198.156,111.046z"/>
			<path d="M76.524,242.086l-7.296,1.164c-1.144,0.188-1.924,1.26-1.74,2.404c0.164,1.032,1.056,1.768,2.068,1.768
				c0.108,0,0.22-0.008,0.332-0.024l7.296-1.164c1.144-0.184,1.924-1.256,1.74-2.4C78.74,242.686,77.664,241.914,76.524,242.086z"/>
			<path d="M178.824,225.766l-14.12,2.252c-1.144,0.184-1.924,1.26-1.74,2.404c0.164,1.032,1.056,1.768,2.072,1.768
				c0.108,0,0.22-0.008,0.332-0.028l14.12-2.252c1.144-0.184,1.924-1.256,1.74-2.4S179.98,225.598,178.824,225.766z"/>
			<path d="M190.604,228.11c0.108,0,0.22-0.008,0.332-0.024l14.12-2.256c1.144-0.188,1.924-1.26,1.74-2.404
				c-0.184-1.144-1.248-1.916-2.4-1.74l-14.12,2.252c-1.14,0.188-1.924,1.26-1.74,2.404
				C188.7,227.374,189.592,228.11,190.604,228.11z"/>
			<path d="M102.096,238.006l-14.12,2.256c-1.144,0.184-1.924,1.256-1.74,2.4c0.168,1.032,1.056,1.768,2.072,1.768
				c0.108,0,0.22-0.008,0.332-0.024l14.12-2.256c1.144-0.184,1.924-1.256,1.74-2.4C104.316,238.606,103.236,237.846,102.096,238.006
				z"/>
			<path d="M127.672,233.926l-14.12,2.256c-1.144,0.184-1.924,1.256-1.74,2.4c0.168,1.032,1.056,1.768,2.072,1.768
				c0.108,0,0.22-0.008,0.332-0.024l14.12-2.256c1.144-0.184,1.924-1.256,1.74-2.4C129.892,234.526,128.832,233.758,127.672,233.926
				z"/>
			<path d="M153.248,229.846l-14.12,2.252c-1.144,0.188-1.924,1.26-1.74,2.404c0.164,1.032,1.056,1.768,2.072,1.768
				c0.108,0,0.22-0.008,0.332-0.028l14.12-2.252c1.144-0.184,1.924-1.256,1.74-2.4S154.404,229.69,153.248,229.846z"/>
			<path d="M216.18,224.03c0.108,0,0.22-0.008,0.332-0.024l7.296-1.164c1.144-0.184,1.924-1.256,1.74-2.4
				c-0.184-1.144-1.244-1.916-2.4-1.744l-7.296,1.164c-1.14,0.188-1.924,1.26-1.74,2.404
				C214.276,223.294,215.168,224.03,216.18,224.03z"/>
			<path d="M248.152,146.346c-2.376-1.276-4.496,2.344-2.116,3.624c5.072,2.724,8.06,8.336,7.088,14.084
				c-0.448,2.64,3.592,3.776,4.044,1.116C258.452,157.586,254.996,150.018,248.152,146.346z"/>
			<path d="M241.912,192.262c1.144,7.168,2.288,14.332,3.428,21.5c0.424,2.66,4.468,1.528,4.044-1.116
				c-1.144-7.168-2.288-14.332-3.432-21.5C245.532,188.49,241.492,189.618,241.912,192.262z"/>
			<path d="M246.2,222.066c0.464,2.896,0.924,5.792,1.388,8.692c0.424,2.66,4.464,1.532,4.044-1.116
				c-0.46-2.896-0.924-5.792-1.388-8.692C249.82,218.294,245.78,219.422,246.2,222.066z"/>
		</g>
	</g>
</g>
<g>
</g>
<g>
</g>
<g>
</g>
<g>
</g>
<g>
</g>
<g>
</g>
<g>
</g>
<g>
</g>
<g>
</g>
<g>
</g>
<g>
</g>
<g>
</g>
<g>
</g>
<g>
</g>
<g>
</g>
</svg>
